<?xml version="1.0" encoding="iso-8859-1"?>
<!-- Generator: Adobe Illustrator 19.0.0, SVG Export Plug-In . SVG Version: 6.00 Build 0)  -->
<svg version="1.1" id="Layer_1" xmlns="http://www.w3.org/2000/svg" xmlns:xlink="http://www.w3.org/1999/xlink" x="0px" y="0px"
	 viewBox="0 0 512 512" style="enable-background:new 0 0 512 512;" xml:space="preserve">
<path style="fill:#AB91EA;" d="M0,256.006C0,397.402,114.606,512.004,255.996,512C397.394,512.004,512,397.402,512,256.006
	C512.009,114.61,397.394,0,255.996,0C114.606,0,0,114.614,0,256.006z"/>
<path style="fill:#947ADB;" d="M512,256.005c0.001-21.555-2.694-42.476-7.709-62.475c-0.11-0.106-0.211-0.219-0.323-0.323
	c-0.541-0.576-91.175-91.212-91.751-91.751c-6.811-7.254-16.413-11.856-27.124-11.856H126.908
	c-20.571,0-37.308,16.737-37.308,37.307v258.186c0,10.709,4.599,20.309,11.852,27.12c0.541,0.577,91.179,91.214,91.756,91.756
	c0.106,0.112,0.22,0.214,0.325,0.325c19.996,5.013,40.911,7.708,62.463,7.707C397.394,512.004,512,397.401,512,256.005z"/>
<g>
	<path style="fill:#F4F6F9;" d="M385.092,89.6H126.908c-20.571,0-37.308,16.737-37.308,37.308v258.186
		c0,20.57,16.737,37.307,37.308,37.307h258.186c20.57,0,37.307-16.737,37.307-37.308V126.908
		C422.4,106.337,405.663,89.6,385.092,89.6z M408.533,385.092c0,12.926-10.515,23.441-23.441,23.441H126.908
		c-12.926,0-23.441-10.515-23.441-23.441V126.908c0-12.926,10.515-23.441,23.441-23.441h258.186c12.925,0,23.44,10.515,23.44,23.441
		V385.092z"/>
	<path style="fill:#F4F6F9;" d="M212.03,229.459c-17.754-7.999-25.9-14.32-25.9-27.796c0-9.686,7.099-20.846,24.86-20.846
		c11.07,0,19.42,3.579,23.601,6.108l4.596-14.738c-5.222-3.161-14.83-6.32-27.572-6.32c-25.9,0-43.028,16.211-43.028,38.113
		c0,19.372,14.409,32.005,34.046,40.012c16.502,7.582,24.227,15.369,24.227,28.428c0,14.526-10.234,24.211-27.777,24.211
		c-10.866,0-21.725-3.579-28.831-8.212l-4.386,14.95c6.48,4.428,19.849,8.212,32.17,8.212c30.286,0,46.373-17.899,46.373-40.43
		C244.41,251.779,233.755,239.776,212.03,229.459z"/>
	<path style="fill:#F4F6F9;" d="M329.841,221.878h-0.422c-4.175-7.582-12.321-16.212-27.776-16.212
		c-20.678,0-41.356,18.317-41.356,53.695c0,28.852,16.081,50.116,39.057,50.116c13.369,0,23.397-6.738,28.198-15.794h0.415v11.159
		c0,24.849-11.906,34.117-29.028,34.117c-11.077,0-20.475-3.373-26.322-6.95l-4.386,13.689c7.31,4.635,19.216,7.37,30.286,7.37
		c12.327,0,25.063-3.366,33.842-11.791c8.561-8.425,12.947-21.27,12.947-45.907v-58.541c0-13.264,0.421-21.894,0.836-29.058h-15.456
		L329.841,221.878z M327.754,268.203c0,3.159-0.211,6.532-1.258,9.686c-3.754,12.002-12.736,17.692-22.14,17.692
		c-16.707,0-26.315-15.163-26.315-37.065c0-23.369,10.649-38.531,26.315-38.531c12.327,0,19.637,8.843,22.561,18.529
		c0.626,2.317,0.836,5.052,0.836,7.999V268.203z"/>
</g>
<g>
</g>
<g>
</g>
<g>
</g>
<g>
</g>
<g>
</g>
<g>
</g>
<g>
</g>
<g>
</g>
<g>
</g>
<g>
</g>
<g>
</g>
<g>
</g>
<g>
</g>
<g>
</g>
<g>
</g>
</svg>
